<?xml version="1.0" encoding="UTF-8" standalone="no"?>
<svg xmlns="http://www.w3.org/2000/svg" height="37px" width="95px" version="1.1" xmlns:xlink="http://www.w3.org/1999/xlink" viewBox="0 0 95 37"><!-- Generator: Sketch 3.6.1 (26313) - http://www.bohemiancoding.com/sketch -->
 <title>logo1@1x</title>
 <desc>Created with Sketch.</desc>
 <defs>
  <filter id="filter-1" height="200%" width="200%" y="-50%" x="-50%" filterUnits="objectBoundingBox">
   <feOffset in="SourceAlpha" result="shadowOffsetOuter1" dx="0" dy="1"/>
   <feGaussianBlur stdDeviation="1" result="shadowBlurOuter1" in="shadowOffsetOuter1"/>
   <feColorMatrix type="matrix" values="0 0 0 0 0   0 0 0 0 0   0 0 0 0 0  0 0 0 0.35 0" result="shadowMatrixOuter1" in="shadowBlurOuter1"/>
   <feMerge>
    <feMergeNode in="shadowMatrixOuter1"/>
    <feMergeNode in="SourceGraphic"/>
   </feMerge>
  </filter>
  <filter id="filter-2" height="200%" width="200%" y="-50%" x="-50%" filterUnits="objectBoundingBox">
   <feOffset in="SourceAlpha" result="shadowOffsetOuter1" dx="0" dy="1"/>
   <feGaussianBlur stdDeviation="1" result="shadowBlurOuter1" in="shadowOffsetOuter1"/>
   <feColorMatrix type="matrix" values="0 0 0 0 0   0 0 0 0 0   0 0 0 0 0  0 0 0 0.35 0" result="shadowMatrixOuter1" in="shadowBlurOuter1"/>
   <feMerge>
    <feMergeNode in="shadowMatrixOuter1"/>
    <feMergeNode in="SourceGraphic"/>
   </feMerge>
  </filter>
 </defs>
 <g id="Page-1" fill-rule="evenodd" fill="none">
  <g id="elabo" transform="translate(-70 -27)">
   <g id="logo1" transform="translate(72 27)">
    <text id="labo" font-size="32" font-weight="bold" font-style="italic" filter="url(#filter-1)" font-family="Roboto-BoldItalic, Roboto" fill="white">
     <tspan y="30" x="32" fill="#0034BB">labo</tspan>
    </text>
    <path id="Combined-Shape" filter="url(#filter-2)" fill="#0D34BB" d="m4.8891 15.038c-0.0001-0.024-0.0001-0.047-0.0001-0.071 0-8.4702 4.9942-13.131 12.791-13.131 2.444 0.0003 4.751 0.6102 6.768 1.7084-2.47-1.6022-5.407-2.5311-8.559-2.5311-8.7751 0-15.889 7.2034-15.889 16.089 0 8.886 7.1139 16.19 15.889 16.19 7.455 0 13.71-5.27 15.425-12.304-1.635 5.998-6.589 9.88-12.924 9.88-2.7 0-4.628-0.731-6.762-2.102-3.5059-2.252-6.0126-6.84-6.6048-11.641l25.948-1.041-26.082-1.046z"/>
   </g>
  </g>
 </g>
</svg>
